<?xml version="1.0" encoding="UTF-8" standalone="no"?><!-- Generator: Gravit.io --><svg xmlns="http://www.w3.org/2000/svg" xmlns:xlink="http://www.w3.org/1999/xlink" style="isolation:isolate" viewBox="263 364 994.274 55.552" width="994.274pt" height="55.552pt"><defs><clipPath id="_clipPath_xhwq0AxZd7qN3TtKGzNZrDoiX18xpzZa"><rect x="263" y="364" width="994.274" height="55.552"/></clipPath></defs><g clip-path="url(#_clipPath_xhwq0AxZd7qN3TtKGzNZrDoiX18xpzZa)"><g><g><g><g><path d=" M 267.365 385.677 L 288.219 385.677 L 288.219 401.016 C 288.219 404.188 287.099 404.719 287.099 404.719 L 292.557 404.719 C 292.557 404.719 291.438 404.188 291.438 401.016 L 291.438 370.073 C 291.438 366.906 292.557 366.557 292.557 366.557 L 287.099 366.557 C 287.099 366.557 288.219 366.932 288.219 370.099 L 288.219 385.068 L 267.365 385.068 L 267.365 370.073 C 267.365 366.906 268.458 366.557 268.458 366.557 L 263 366.557 C 263 366.557 264.12 366.932 264.12 370.099 L 264.12 401.016 C 264.12 404.188 263 404.719 263 404.719 L 268.458 404.719 C 268.458 404.719 267.365 404.188 267.365 401.016 L 267.365 385.677 Z " fill="rgb(84,84,84)"/></g></g></g><g><g><g><path d=" M 308.106 376.25 C 300.544 376.25 294.419 382.667 294.419 390.526 C 294.419 398.38 300.544 404.771 308.106 404.771 C 315.669 404.771 321.794 398.38 321.794 390.526 C 321.794 382.667 315.669 376.25 308.106 376.25 Z  M 308.106 403.547 C 302.408 403.547 297.773 397.526 297.773 390.391 C 297.773 383.255 302.408 377.474 308.106 377.474 C 313.804 377.474 318.439 383.255 318.439 390.391 C 318.439 397.526 313.804 403.547 308.106 403.547 Z " fill="rgb(84,84,84)"/></g></g></g><g><g><g><path d=" M 323.654 377.927 C 323.654 377.927 324.774 378.464 324.774 381.656 L 324.774 401.203 C 324.774 404.37 323.654 404.745 323.654 404.745 C 326.529 404.745 328.018 404.188 328.018 401.604 L 328.018 376.25 L 323.654 377.927 Z  M 342.425 404.745 L 347.888 404.745 C 347.888 404.745 346.768 404.401 346.768 401.229 L 346.768 383.656 C 346.768 374.974 329.935 372.307 328.206 384.214 C 330.841 374.922 343.518 375 343.518 384.266 C 343.518 401.203 343.518 401.203 343.518 401.203 C 343.518 404.37 342.425 404.745 342.425 404.745 Z " fill="rgb(84,84,84)"/></g></g></g><g><g><g><path d=" M 363.435 376.25 C 355.872 376.25 349.747 382.667 349.747 390.526 C 349.747 398.38 355.872 404.771 363.435 404.771 C 370.997 404.771 377.122 398.38 377.122 390.526 C 377.122 382.667 370.997 376.25 363.435 376.25 Z  M 363.435 403.547 C 357.737 403.547 353.101 397.526 353.101 390.391 C 353.101 383.255 357.737 377.474 363.435 377.474 C 369.133 377.474 373.768 383.255 373.768 390.391 C 373.768 397.526 369.133 403.547 363.435 403.547 Z " fill="rgb(84,84,84)"/></g></g></g><g><g><g><path d=" M 383.482 384.214 C 385.024 376.599 395.357 375.161 397.461 382.75 L 400.336 382.057 C 398.29 374.042 383.909 373.958 383.482 384.214 Z  M 378.982 404.745 L 384.441 404.745 C 384.441 404.745 383.347 404.401 383.347 401.229 L 383.321 376.224 L 378.982 377.901 C 378.982 377.901 380.102 378.432 380.102 381.604 L 380.102 401.203 C 380.102 404.37 378.982 404.745 378.982 404.745 Z " fill="rgb(84,84,84)"/></g></g></g><g><g/></g><g><g><g><path d=" M 420.41 396.677 C 420.41 379.74 420.41 376.198 420.41 376.198 L 416.046 377.901 C 416.046 377.901 417.165 378.25 417.165 381.417 L 417.165 397.286 C 417.165 405.969 433.993 408.63 435.749 396.729 C 433.087 406.021 420.41 405.943 420.41 396.677 Z  M 439.16 376.224 L 434.816 377.901 C 434.816 377.901 435.91 378.432 435.936 381.552 L 435.936 401.974 C 435.936 405.969 436.02 413.88 427.921 413.88 C 419.827 413.88 418.202 407.115 418.202 407.115 C 418.202 410.682 421.608 415.396 427.868 415.396 C 438.921 415.396 439.186 407.646 439.186 402 L 439.16 376.224 Z " fill="rgb(84,84,84)"/></g></g></g><g><g><g><path d=" M 454.735 376.25 C 447.172 376.25 441.047 382.667 441.047 390.526 C 441.047 398.38 447.172 404.771 454.735 404.771 C 462.297 404.771 468.422 398.38 468.422 390.526 C 468.422 382.667 462.297 376.25 454.735 376.25 Z  M 454.735 403.547 C 449.037 403.547 444.401 397.526 444.401 390.391 C 444.401 383.255 449.037 377.474 454.735 377.474 C 460.433 377.474 465.068 383.255 465.068 390.391 C 465.068 397.526 460.433 403.547 454.735 403.547 Z " fill="rgb(84,84,84)"/></g></g></g><g><g><g><path d=" M 474.647 396.677 C 474.647 379.74 474.647 379.74 474.647 379.74 C 474.647 376.542 474.647 376.198 474.647 376.198 L 470.282 377.901 C 470.282 377.901 471.402 378.25 471.402 381.417 L 471.402 397.286 C 471.402 405.969 488.23 408.63 489.986 396.729 C 487.324 406.021 474.647 405.943 474.647 396.677 Z  M 489.053 404.745 L 494.517 404.745 C 494.517 404.745 493.423 404.401 493.423 401.229 L 493.397 376.224 L 489.053 377.901 C 489.053 377.901 490.173 378.432 490.173 381.604 L 490.173 401.203 C 490.173 404.37 489.053 404.745 489.053 404.745 Z " fill="rgb(84,84,84)"/></g></g></g><g><g><g><path d=" M 500.876 384.214 C 502.418 376.599 512.751 375.161 514.855 382.75 L 517.73 382.057 C 515.683 374.042 501.303 373.958 500.876 384.214 Z  M 496.376 404.745 L 501.834 404.745 C 501.834 404.745 500.74 404.401 500.74 401.229 L 500.714 376.224 L 496.376 377.901 C 496.376 377.901 497.496 378.432 497.496 381.604 L 497.496 401.203 C 497.496 404.37 496.376 404.745 496.376 404.745 Z " fill="rgb(84,84,84)"/></g></g></g><g><g/></g><g><g><g><path d=" M 537.804 385.677 L 558.658 385.677 L 558.658 401.016 C 558.658 404.188 557.538 404.719 557.538 404.719 L 562.996 404.719 C 562.996 404.719 561.877 404.188 561.877 401.016 L 561.877 370.073 C 561.877 366.906 562.996 366.557 562.996 366.557 L 557.538 366.557 C 557.538 366.557 558.658 366.932 558.658 370.099 L 558.658 385.068 L 537.804 385.068 L 537.804 370.073 C 537.804 366.906 538.897 366.557 538.897 366.557 L 533.439 366.557 C 533.439 366.557 534.559 366.932 534.559 370.099 L 534.559 401.016 C 534.559 404.188 533.439 404.719 533.439 404.719 L 538.897 404.719 C 538.897 404.719 537.804 404.188 537.804 401.016 L 537.804 385.677 Z " fill="rgb(84,84,84)"/></g></g></g><g><g><g><path d=" M 569.222 396.677 C 569.222 379.74 569.222 379.74 569.222 379.74 C 569.222 376.542 569.222 376.198 569.222 376.198 L 564.858 377.901 C 564.858 377.901 565.977 378.25 565.977 381.417 L 565.977 397.286 C 565.977 405.969 582.806 408.63 584.561 396.729 C 581.899 406.021 569.222 405.943 569.222 396.677 Z  M 583.628 404.745 L 589.092 404.745 C 589.092 404.745 587.998 404.401 587.998 401.229 L 587.972 376.224 L 583.628 377.901 C 583.628 377.901 584.748 378.432 584.748 381.604 L 584.748 401.203 C 584.748 404.37 583.628 404.745 583.628 404.745 Z " fill="rgb(84,84,84)"/></g></g></g><g><g><g><path d=" M 590.951 377.927 C 590.951 377.927 592.071 378.464 592.071 381.656 L 592.071 401.203 C 592.071 404.37 590.951 404.745 590.951 404.745 C 593.826 404.745 595.316 404.188 595.316 401.604 L 595.316 376.25 L 590.951 377.927 Z  M 609.722 404.745 L 615.185 404.745 C 615.185 404.745 614.066 404.401 614.066 401.229 L 614.066 383.656 C 614.066 374.974 597.232 372.307 595.503 384.214 C 598.138 374.922 610.816 375 610.816 384.266 C 610.816 401.203 610.816 401.203 610.816 401.203 C 610.816 404.37 609.722 404.745 609.722 404.745 Z " fill="rgb(84,84,84)"/></g></g></g><g><g><g><path d=" M 632.169 402.026 C 627.404 402.026 624.419 403.813 620.904 403.813 C 619.388 403.813 618.857 402.828 618.857 401.922 C 618.857 400.193 620.904 399.448 622.607 399.286 C 624.555 400.615 626.899 401.417 629.399 401.417 C 636.055 401.417 641.461 395.797 641.461 388.849 C 641.461 384.531 639.357 380.698 636.164 378.464 C 637.284 376.703 639.091 377.13 640.346 377.823 C 642.128 378.807 643.753 375.745 641.383 375.026 C 638.346 374.12 636.747 376.302 635.872 378.224 C 633.982 376.995 631.768 376.25 629.399 376.25 C 622.742 376.25 617.232 381.896 617.232 388.849 C 617.232 393.026 619.227 396.729 622.289 399.021 C 619.758 399.047 616.643 400.167 616.643 402.776 C 616.643 404.344 617.951 405.625 619.997 405.625 C 623.461 405.625 626.336 403.198 630.919 403.068 C 635.789 402.932 639.706 405.573 639.706 410.443 C 639.706 415.318 635.789 418.51 629.904 418.51 C 617.414 418.51 619.039 407.328 622.024 406.583 C 615.044 404.161 612.888 419.552 629.747 419.552 C 638.133 419.552 643.274 415.875 643.274 410.229 C 643.274 403.016 634.966 402.026 632.169 402.026 Z  M 620.477 388.714 C 620.477 382.427 624.367 377.318 629.399 377.318 C 634.404 377.318 638.216 382.615 638.216 388.927 C 638.216 395.214 634.404 400.323 629.399 400.323 C 624.367 400.323 620.477 395.026 620.477 388.714 Z " fill="rgb(84,84,84)"/></g></g></g><g><g><g><path d=" M 646.944 389.859 L 646.944 389.51 L 670.564 389.51 C 670.564 379.927 665.08 376.25 657.543 376.25 C 649.981 376.25 643.59 382.135 643.59 389.99 C 643.59 397.849 649.424 404.771 658.554 404.771 C 664.523 404.771 669.262 400.776 669.715 396.542 C 667.877 405.172 647.132 406.979 646.944 389.859 Z  M 657.543 377.474 C 664.491 377.474 667.528 382.323 667.528 388.688 L 646.971 388.688 C 647.424 382.161 652.137 377.474 657.543 377.474 Z " fill="rgb(84,84,84)"/></g></g></g><g><g><g><path d=" M 676.926 384.214 C 678.468 376.599 688.801 375.161 690.905 382.75 L 693.78 382.057 C 691.733 374.042 677.353 373.958 676.926 384.214 Z  M 672.426 404.745 L 677.884 404.745 C 677.884 404.745 676.791 404.401 676.791 401.229 L 676.765 376.224 L 672.426 377.901 C 672.426 377.901 673.546 378.432 673.546 381.604 L 673.546 401.203 C 673.546 404.37 672.426 404.745 672.426 404.745 Z " fill="rgb(84,84,84)"/></g></g></g><g><g/></g><g><g/></g><g><g/></g><g><g/></g><g><g/></g><g><g><g><path d=" M 788.872 401.016 L 782.028 389.781 C 790.31 388.953 793.612 384.797 793.612 377.901 C 793.612 370.953 787.617 366.583 780.643 366.583 C 779.872 366.583 764.851 366.583 764.851 366.583 C 764.851 366.583 765.971 367.115 765.971 370.286 L 765.971 401.177 C 765.971 404.344 764.851 404.719 764.851 404.719 L 770.31 404.719 C 770.31 404.719 769.216 404.37 769.216 401.203 L 769.216 389.938 C 769.216 389.938 778.831 389.938 778.857 389.938 L 785.648 401.016 C 787.565 404.188 786.794 404.719 786.794 404.719 L 792.252 404.719 C 792.252 404.719 790.815 404.188 788.872 401.016 Z  M 777.075 388.979 L 769.216 388.979 L 769.216 370.286 C 769.216 369.115 769.351 368.286 769.539 367.755 L 778.726 367.755 C 784.185 367.755 790.226 370.578 790.226 377.984 C 790.226 387.198 784.502 388.979 777.075 388.979 Z " fill="rgb(84,84,84)"/></g></g></g><g><g><g><path d=" M 798.825 389.859 L 798.825 389.51 L 822.445 389.51 C 822.445 379.927 816.961 376.25 809.424 376.25 C 801.862 376.25 795.471 382.135 795.471 389.99 C 795.471 397.849 801.304 404.771 810.435 404.771 C 816.403 404.771 821.143 400.776 821.596 396.542 C 819.758 405.172 799.013 406.979 798.825 389.859 Z  M 809.424 377.474 C 816.372 377.474 819.409 382.323 819.409 388.688 L 798.851 388.688 C 799.304 382.161 804.018 377.474 809.424 377.474 Z " fill="rgb(84,84,84)"/></g></g></g><g><g><g><path d=" M 845.797 397.208 C 845.797 399.365 844.463 404.052 837.062 404.052 C 829.099 404.052 827.02 398.516 826.567 397.26 L 824.307 400.005 C 825.13 401.099 827.713 404.745 837.01 404.745 C 846.328 404.745 850.031 401.339 850.031 396.651 C 850.031 386.771 829.151 391.349 829.151 383.417 C 829.151 379.208 832.854 377.021 836.531 377.021 C 846.25 377.021 846.38 383.016 846.38 383.016 L 847.422 378.646 C 847.422 378.646 843.64 376.276 836.927 376.276 C 826.224 376.276 825.77 382.323 825.77 383.443 C 825.77 394.307 845.797 389.302 845.797 397.208 Z " fill="rgb(84,84,84)"/></g></g></g><g><g><g><path d=" M 856.23 376.276 L 851.891 377.953 C 851.891 377.953 853.011 378.49 853.011 381.656 L 853.011 413.479 C 853.011 416.646 851.891 416.995 851.891 416.995 L 857.35 416.995 C 857.35 416.995 856.256 416.677 856.256 413.505 L 856.256 400.271 C 858.042 402.99 861.37 404.745 865.501 404.745 C 873.485 404.745 878.975 399.125 878.975 390.417 C 878.975 370.578 856.365 374.094 856.443 384.214 C 858.949 375.583 875.589 372.229 875.589 390.5 C 875.589 400.083 870.292 403.625 865.766 403.625 C 859.188 403.625 856.256 398.516 856.256 393.401 L 856.23 376.276 Z " fill="rgb(84,84,84)"/></g></g></g><g><g><g><path d=" M 884.188 389.859 L 884.188 389.51 L 907.808 389.51 C 907.808 379.927 902.323 376.25 894.787 376.25 C 887.224 376.25 880.834 382.135 880.834 389.99 C 880.834 397.849 886.667 404.771 895.797 404.771 C 901.766 404.771 906.506 400.776 906.959 396.542 C 905.12 405.172 884.375 406.979 884.188 389.859 Z  M 894.787 377.474 C 901.735 377.474 904.771 382.323 904.771 388.688 L 884.214 388.688 C 884.667 382.161 889.381 377.474 894.787 377.474 Z " fill="rgb(84,84,84)"/></g></g></g><g><g><g><path d=" M 933.768 397.26 C 931.237 405.995 913.024 406.714 913.024 390.391 C 913.024 383.255 917.659 377.474 923.357 377.474 C 927.3 377.474 931.05 379.474 932.461 384.266 L 934.597 381.526 C 932.862 378.516 928.201 376.276 923.357 376.276 C 915.821 376.276 909.669 382.667 909.669 390.526 C 909.669 399.474 915.821 404.771 923.357 404.771 C 927.352 404.771 932.143 403.042 933.768 397.26 Z " fill="rgb(84,84,84)"/></g></g></g><g><g><g><path d=" M 943.538 376.25 L 943.538 368.766 L 939.195 370.448 C 939.195 370.448 940.314 370.979 940.314 374.146 C 940.314 374.146 940.314 374.813 940.314 376.25 L 936.455 376.25 L 936.455 377.156 L 940.314 377.156 C 940.314 380.911 940.314 388.37 940.314 400.563 C 940.314 404.188 942.95 404.745 943.804 404.745 C 945.533 404.745 947.002 403.599 947.002 401.87 C 946.549 403.016 943.512 403.547 943.564 400.589 L 943.538 377.156 L 948.2 377.156 L 948.2 376.25 L 943.538 376.25 Z " fill="rgb(84,84,84)"/></g></g></g><g><g/></g><g><g><g><path d=" M 968.271 396.677 C 968.271 379.74 968.271 376.198 968.271 376.198 L 963.906 377.901 C 963.906 377.901 965.026 378.25 965.026 381.417 L 965.026 397.286 C 965.026 405.969 981.854 408.63 983.61 396.729 C 980.948 406.021 968.271 405.943 968.271 396.677 Z  M 987.021 376.224 L 982.677 377.901 C 982.677 377.901 983.771 378.432 983.797 381.552 L 983.797 401.974 C 983.797 405.969 983.88 413.88 975.781 413.88 C 967.688 413.88 966.063 407.115 966.063 407.115 C 966.063 410.682 969.469 415.396 975.729 415.396 C 986.781 415.396 987.047 407.646 987.047 402 L 987.021 376.224 Z " fill="rgb(84,84,84)"/></g></g></g><g><g><g><path d=" M 1002.596 376.25 C 995.033 376.25 988.908 382.667 988.908 390.526 C 988.908 398.38 995.033 404.771 1002.596 404.771 C 1010.158 404.771 1016.283 398.38 1016.283 390.526 C 1016.283 382.667 1010.158 376.25 1002.596 376.25 Z  M 1002.596 403.547 C 996.898 403.547 992.262 397.526 992.262 390.391 C 992.262 383.255 996.898 377.474 1002.596 377.474 C 1008.294 377.474 1012.929 383.255 1012.929 390.391 C 1012.929 397.526 1008.294 403.547 1002.596 403.547 Z " fill="rgb(84,84,84)"/></g></g></g><g><g><g><path d=" M 1022.508 396.677 C 1022.508 379.74 1022.508 379.74 1022.508 379.74 C 1022.508 376.542 1022.508 376.198 1022.508 376.198 L 1018.143 377.901 C 1018.143 377.901 1019.263 378.25 1019.263 381.417 L 1019.263 397.286 C 1019.263 405.969 1036.091 408.63 1037.846 396.729 C 1035.185 406.021 1022.508 405.943 1022.508 396.677 Z  M 1036.914 404.745 L 1042.378 404.745 C 1042.378 404.745 1041.284 404.401 1041.284 401.229 L 1041.258 376.224 L 1036.914 377.901 C 1036.914 377.901 1038.034 378.432 1038.034 381.604 L 1038.034 401.203 C 1038.034 404.37 1036.914 404.745 1036.914 404.745 Z " fill="rgb(84,84,84)"/></g></g></g><g><g><g><path d=" M 1048.737 384.214 C 1050.278 376.599 1060.612 375.161 1062.716 382.75 L 1065.591 382.057 C 1063.544 374.042 1049.164 373.958 1048.737 384.214 Z  M 1044.237 404.745 L 1049.695 404.745 C 1049.695 404.745 1048.601 404.401 1048.601 401.229 L 1048.575 376.224 L 1044.237 377.901 C 1044.237 377.901 1045.356 378.432 1045.356 381.604 L 1045.356 401.203 C 1045.356 404.37 1044.237 404.745 1044.237 404.745 Z " fill="rgb(84,84,84)"/></g></g></g><g><g/></g><g><g><g><path d=" M 1095.441 386.104 L 1095.441 379.818 C 1095.441 379.818 1094.347 382.51 1089.024 382.51 L 1085.665 382.51 L 1085.665 370.073 C 1085.665 368.927 1085.8 368.13 1085.987 367.625 L 1092.508 367.625 C 1104.972 367.625 1106.435 371.646 1106.435 371.646 L 1105.347 366.557 L 1081.3 366.557 C 1081.3 366.557 1082.42 366.932 1082.42 370.099 L 1082.42 401.016 C 1082.42 404.188 1081.3 404.719 1081.3 404.719 L 1086.758 404.719 C 1086.758 404.719 1085.665 404.188 1085.665 401.016 L 1085.665 383.417 L 1089.024 383.417 C 1094.347 383.417 1095.441 386.104 1095.441 386.104 Z " fill="rgb(84,84,84)"/></g></g></g><g><g><g><path d=" M 1112.663 396.677 C 1112.663 379.74 1112.663 379.74 1112.663 379.74 C 1112.663 376.542 1112.663 376.198 1112.663 376.198 L 1108.299 377.901 C 1108.299 377.901 1109.418 378.25 1109.418 381.417 L 1109.418 397.286 C 1109.418 405.969 1126.247 408.63 1128.002 396.729 C 1125.34 406.021 1112.663 405.943 1112.663 396.677 Z  M 1127.069 404.745 L 1132.533 404.745 C 1132.533 404.745 1131.439 404.401 1131.439 401.229 L 1131.413 376.224 L 1127.069 377.901 C 1127.069 377.901 1128.189 378.432 1128.189 381.604 L 1128.189 401.203 C 1128.189 404.37 1127.069 404.745 1127.069 404.745 Z " fill="rgb(84,84,84)"/></g></g></g><g><g><g><path d=" M 1135.512 369.406 L 1135.512 401.203 C 1135.512 404.37 1134.392 404.745 1134.392 404.745 L 1139.85 404.745 C 1139.85 404.745 1138.757 404.401 1138.757 401.229 L 1138.731 364 L 1134.392 365.677 C 1134.392 365.677 1135.512 366.24 1135.512 369.406 Z " fill="rgb(84,84,84)"/></g></g></g><g><g><g><path d=" M 1142.834 369.406 L 1142.834 401.203 C 1142.834 404.37 1141.714 404.745 1141.714 404.745 L 1147.172 404.745 C 1147.172 404.745 1146.079 404.401 1146.079 401.229 L 1146.053 364 L 1141.714 365.677 C 1141.714 365.677 1142.834 366.24 1142.834 369.406 Z " fill="rgb(84,84,84)"/></g></g></g><g><g><g><path d=" M 1149.036 377.927 C 1149.036 377.927 1150.156 378.464 1150.156 381.656 L 1150.156 401.203 C 1150.156 404.37 1149.036 404.745 1149.036 404.745 C 1151.911 404.745 1153.401 404.188 1153.401 401.604 L 1153.401 376.25 L 1149.036 377.927 Z  M 1167.807 404.745 L 1173.271 404.745 C 1173.271 404.745 1172.151 404.401 1172.151 401.229 L 1172.151 383.656 C 1172.151 374.974 1155.317 372.307 1153.588 384.214 C 1156.224 374.922 1168.901 375 1168.901 384.266 C 1168.901 401.203 1168.901 401.203 1168.901 401.203 C 1168.901 404.37 1167.807 404.745 1167.807 404.745 Z " fill="rgb(84,84,84)"/></g></g></g><g><g><g><path d=" M 1178.484 389.859 L 1178.484 389.51 L 1202.104 389.51 C 1202.104 379.927 1196.619 376.25 1189.083 376.25 C 1181.52 376.25 1175.13 382.135 1175.13 389.99 C 1175.13 397.849 1180.963 404.771 1190.093 404.771 C 1196.062 404.771 1200.801 400.776 1201.255 396.542 C 1199.416 405.172 1178.671 406.979 1178.484 389.859 Z  M 1189.083 377.474 C 1196.031 377.474 1199.067 382.323 1199.067 388.688 L 1178.51 388.688 C 1178.963 382.161 1183.676 377.474 1189.083 377.474 Z " fill="rgb(84,84,84)"/></g></g></g><g><g><g><path d=" M 1225.455 397.208 C 1225.455 399.365 1224.122 404.052 1216.721 404.052 C 1208.757 404.052 1206.679 398.516 1206.226 397.26 L 1203.965 400.005 C 1204.788 401.099 1207.372 404.745 1216.669 404.745 C 1225.986 404.745 1229.689 401.339 1229.689 396.651 C 1229.689 386.771 1208.809 391.349 1208.809 383.417 C 1208.809 379.208 1212.512 377.021 1216.189 377.021 C 1225.908 377.021 1226.038 383.016 1226.038 383.016 L 1227.08 378.646 C 1227.08 378.646 1223.299 376.276 1216.585 376.276 C 1205.882 376.276 1205.429 382.323 1205.429 383.443 C 1205.429 394.307 1225.455 389.302 1225.455 397.208 Z " fill="rgb(84,84,84)"/></g></g></g><g><g><g><path d=" M 1253.039 397.208 C 1253.039 399.365 1251.706 404.052 1244.305 404.052 C 1236.341 404.052 1234.263 398.516 1233.81 397.26 L 1231.55 400.005 C 1232.373 401.099 1234.956 404.745 1244.253 404.745 C 1253.571 404.745 1257.274 401.339 1257.274 396.651 C 1257.274 386.771 1236.394 391.349 1236.394 383.417 C 1236.394 379.208 1240.097 377.021 1243.774 377.021 C 1253.493 377.021 1253.623 383.016 1253.623 383.016 L 1254.664 378.646 C 1254.664 378.646 1250.883 376.276 1244.17 376.276 C 1233.466 376.276 1233.013 382.323 1233.013 383.443 C 1233.013 394.307 1253.039 389.302 1253.039 397.208 Z " fill="rgb(84,84,84)"/></g></g></g><g><g/></g><g><g/></g><g><g/></g><g><g/></g><g><g/></g><clipPath id="_clipPath_v9ydCR85l4dDsNLrg6GFpGhzAHOOyWG8"><path d=" M 714.394 374.847 L 746.154 374.847 L 746.154 404.815 L 714.394 404.815 L 714.394 374.847 Z " fill="rgb(255,255,255)"/></clipPath><g clip-path="url(#_clipPath_v9ydCR85l4dDsNLrg6GFpGhzAHOOyWG8)"><g><path d=" M 745.389 383.519 C 744.842 381.894 744.076 380.482 743.092 379.456 C 742.597 378.914 741.998 378.373 741.342 377.94 C 740.79 377.56 740.134 377.232 739.535 376.961 C 739.097 376.8 738.654 376.638 738.274 376.477 C 737.998 376.367 737.727 376.258 737.451 376.149 L 737.123 375.987 C 736.634 375.769 736.082 375.555 735.535 375.394 C 734.717 375.227 733.894 375.117 733.128 375.013 C 732.415 374.904 731.707 374.904 730.884 374.847 C 730.717 374.847 730.498 374.847 730.337 374.847 C 729.134 374.847 727.873 374.956 726.394 375.175 C 725.134 375.336 723.821 375.664 722.561 376.149 C 721.904 376.367 721.248 376.638 720.701 376.961 C 720.097 377.289 719.498 377.774 718.946 378.373 C 718.399 379.024 717.91 379.508 717.524 380.05 C 717.363 380.321 717.144 380.591 716.977 380.862 C 716.868 381.029 716.759 381.19 716.649 381.352 C 716.373 381.784 716.102 382.164 715.936 382.597 C 715.717 383.029 715.498 383.576 715.337 384.17 C 715.227 384.602 715.118 385.034 715.061 385.472 C 715.009 385.576 715.009 385.742 714.951 385.852 C 714.79 386.555 714.681 387.258 714.571 388.232 C 714.404 389.586 714.347 390.998 714.457 392.571 C 714.514 393.274 714.571 394.138 714.79 394.951 C 715.009 395.711 715.279 396.472 715.665 397.175 C 715.993 397.769 716.431 398.42 717.035 399.128 C 717.363 399.56 717.8 399.94 718.181 400.315 L 718.509 400.644 C 719.55 401.67 720.811 402.539 722.342 403.3 C 723.056 403.623 723.821 403.894 724.753 404.164 C 725.628 404.383 726.556 404.545 727.269 404.654 C 727.925 404.763 728.639 404.763 729.571 404.815 C 729.79 404.815 729.951 404.815 730.17 404.815 C 730.337 404.815 730.498 404.815 730.665 404.815 C 731.212 404.815 731.707 404.706 732.087 404.654 C 732.8 404.545 733.509 404.383 734.279 404.112 C 735.045 403.894 735.811 403.513 736.524 403.19 C 736.852 403.029 737.233 402.862 737.618 402.649 C 737.889 402.487 738.165 402.321 738.384 402.159 L 738.545 402.05 C 739.149 401.617 739.753 401.128 740.519 400.425 C 741.175 399.831 741.67 399.289 742.108 398.8 C 742.707 398.149 743.144 397.336 743.587 396.633 C 744.024 395.873 744.352 395.06 744.681 394.305 C 744.951 393.654 745.227 392.946 745.389 392.3 C 745.608 391.539 745.717 390.727 745.826 389.966 C 745.884 389.315 745.936 388.612 745.993 387.8 C 745.993 386.935 745.884 386.065 745.774 385.362 C 745.774 384.821 745.608 384.222 745.389 383.519 Z " fill="rgb(228,164,70)"/></g></g></g></g></svg>